#N canvas 646 356 450 300 12;
#N canvas 407 23 538 751 analyzer 0;
#X obj 109 607 t a b;
#X obj 111 669 text set peaks;
#X obj 167 116 text define peaks;
#X f 11;
#X msg 167 84 clear;
#X obj 91 274 array size;
#X msg 91 210 symbol t\$1;
#X msg 104 528 list t\$3 \$2 \$1 48000 0;
#X obj 112 496 pack f 8192 0;
#X obj 91 238 t b a;
#X obj 91 308 / 8192;
#X obj 91 338 int;
#X obj 91 375 until;
#X obj 91 400 f;
#X obj 125 400 + 1;
#X obj 115 452 * 8192;
#X msg 60 89 0 \, 1 \, 2 \, 3 \, 4 \, 5 \, 6 \, 7 \, 8, f 8;
#X msg 167 639 1e+12;
#X obj 148 313 - 1;
#X msg 238 289 0;
#X obj 62 11 inlet;
#X obj 237 378 pack;
#X obj 237 438 print status;
#X msg 237 408 \$1 analysis in array \$2;
#X msg 287 237 \; t\$1 normalize;
#X obj 59 43 t b b f, f 25;
#X obj 305 135 t f f f;
#X obj 305 73 sel;
#X msg 305 103 8192;
#X obj 106 564 sigmund~ -t -npeak 10 -maxfreq 16000 peaks, f 21;
#X obj 148 338 t f f f;
#X obj 40 430 t f f;
#X obj 266 734 outlet;
#X obj 181 402 - 1;
#X obj 38 463 sel;
#X obj 60 161 t f f b f f;
#X obj 45 501 f;
#X obj 32 677 sel 8;
#X obj 45 526 t f f;
#X obj 312 630 text set peak-sizes;
#X obj 356 494 text size peaks;
#X obj 336 560 fd_sum;
#X obj 304 587 f;
#X obj 284 467 sel 8;
#X obj 355 455 b;
#X obj 281 497 t b b b;
#X obj 384 24 inlet;
#X obj 388 594 t f f;
#X obj 266 705 f;
#X obj 244 204 spigot 1;
#X obj 246 171 r normalize;
#X obj 246 14 r window-size;
#X obj 135 14 f 8192;
#X obj 356 519 / 4;
#X connect 0 0 1 0;
#X connect 0 1 16 0;
#X connect 3 0 2 0;
#X connect 4 0 9 0;
#X connect 5 0 8 0;
#X connect 6 0 28 0;
#X connect 7 0 6 0;
#X connect 8 0 4 0;
#X connect 8 1 4 1;
#X connect 9 0 10 0;
#X connect 10 0 17 0;
#X connect 11 0 12 0;
#X connect 12 0 13 0;
#X connect 12 0 30 0;
#X connect 13 0 12 1;
#X connect 14 0 7 0;
#X connect 15 0 34 0;
#X connect 16 0 1 1;
#X connect 17 0 29 0;
#X connect 18 0 12 1;
#X connect 19 0 51 0;
#X connect 20 0 22 0;
#X connect 22 0 21 0;
#X connect 24 0 15 0;
#X connect 24 1 3 0;
#X connect 24 2 26 0;
#X connect 25 0 9 1;
#X connect 25 1 14 1;
#X connect 25 2 7 1;
#X connect 26 0 27 0;
#X connect 26 1 25 0;
#X connect 27 0 25 0;
#X connect 28 0 0 0;
#X connect 29 0 11 0;
#X connect 29 1 32 0;
#X connect 29 2 20 0;
#X connect 30 0 33 0;
#X connect 30 1 14 0;
#X connect 32 0 33 1;
#X connect 33 0 35 0;
#X connect 34 0 5 0;
#X connect 34 1 7 2;
#X connect 34 1 20 1;
#X connect 34 2 18 0;
#X connect 34 3 48 0;
#X connect 34 4 35 1;
#X connect 35 0 37 0;
#X connect 36 0 47 0;
#X connect 37 0 36 0;
#X connect 37 1 42 0;
#X connect 39 0 52 0;
#X connect 40 0 41 1;
#X connect 41 0 38 0;
#X connect 42 0 44 0;
#X connect 42 1 43 0;
#X connect 43 0 39 0;
#X connect 44 0 40 1;
#X connect 44 1 41 0;
#X connect 44 2 39 0;
#X connect 45 0 46 0;
#X connect 46 0 38 1;
#X connect 46 1 47 1;
#X connect 47 0 31 0;
#X connect 48 0 23 0;
#X connect 49 0 48 1;
#X connect 50 0 51 1;
#X connect 51 0 24 0;
#X connect 52 0 40 0;
#X restore 140 127 pd analyzer;
#N canvas 389 93 723 477 loader 0;
#X obj 165 306 soundfiler;
#X obj 152 118 f;
#X obj 186 119 + 1;
#X msg 152 89 0;
#X obj 203 183 * 4.19432e+06;
#X obj 32 209 sel 4.19432e+06;
#X obj 152 9 inlet;
#X obj 149 401 outlet;
#X obj 152 60 t b f f, f 17;
#X obj 264 401 outlet;
#X obj 149 351 t b b;
#X obj 264 371 f;
#X obj 161 35 r single;
#X obj 165 149 t f f f;
#X msg 165 272 read -skip \$2 -resize -maxsize 4.19432e+06 \$3 t\$1
;
#X text 304 215 edit path in this message for different files:;
#X obj 250 117 makefilename ../../../../Downloads/elsa-justel/marelle-16/marelle-%d.aif
, f 30;
#X obj 165 212 pack;
#X obj 165 237 list append;
#X connect 0 0 5 0;
#X connect 1 0 13 0;
#X connect 2 0 1 1;
#X connect 3 0 1 0;
#X connect 4 0 17 1;
#X connect 5 0 1 0;
#X connect 5 1 10 0;
#X connect 6 0 8 0;
#X connect 8 0 3 0;
#X connect 8 1 16 0;
#X connect 8 2 11 1;
#X connect 10 0 7 0;
#X connect 10 1 11 0;
#X connect 11 0 9 0;
#X connect 12 0 8 0;
#X connect 13 0 17 0;
#X connect 13 1 4 0;
#X connect 13 2 2 0;
#X connect 14 0 0 0;
#X connect 16 0 18 1;
#X connect 17 0 18 0;
#X connect 18 0 14 0;
#X restore 140 103 pd loader;
#N canvas -2 13 723 732 set 0;
#X msg 148 159 line 0 \, auto;
#X obj 147 188 text sequence peaks;
#X obj 147 218 unpack f f f f f;
#X obj 54 268 b;
#X obj 58 371 f;
#X obj 102 369 + 1;
#X obj 100 270 text size peaks;
#X obj 100 300 t b f;
#X msg 100 330 0;
#X obj 69 404 /;
#X obj 131 462 pack f f f;
#X obj 557 414 t b b;
#X obj 151 574 t a a;
#X obj 182 607 list length;
#X obj 172 637 array size pos;
#X obj 147 666 array set pos;
#X obj 332 579 t a a;
#X obj 364 610 list length;
#X obj 364 640 array size col;
#X obj 336 677 array set col;
#X obj 149 549 list store;
#X obj 333 551 list store;
#X obj 530 185 t b b;
#X obj 254 16 inlet;
#X obj 242 297 t f f;
#X msg 127 501 append \$2 \$3 \$1;
#X obj 440 241 f;
#X obj 147 374 log;
#X obj 394 364 / 3.14159;
#X obj 394 395 * 0.5;
#X obj 394 425 + 0.5;
#X obj 393 337 atan2;
#X obj 148 399 t f f;
#X obj 301 466 pack f f f f;
#X obj 277 431 / 10;
#X obj 285 328 rmstodb;
#X obj 301 352 / 100;
#X msg 338 408 1 \$1;
#X obj 338 433 -;
#X obj 301 377 t f f;
#X msg 300 497 append \$2 \$1 \$3 \$4;
#X obj 250 58 t b b b b f;
#X obj 440 266 outlet;
#X connect 0 0 1 0;
#X connect 1 0 2 0;
#X connect 1 1 22 0;
#X connect 2 0 3 0;
#X connect 2 1 27 0;
#X connect 2 2 24 0;
#X connect 2 3 31 0;
#X connect 2 4 31 1;
#X connect 3 0 4 0;
#X connect 4 0 5 0;
#X connect 4 0 9 0;
#X connect 5 0 4 1;
#X connect 6 0 7 0;
#X connect 7 0 8 0;
#X connect 7 1 9 1;
#X connect 8 0 4 1;
#X connect 9 0 10 0;
#X connect 10 0 25 0;
#X connect 11 0 20 0;
#X connect 11 1 21 0;
#X connect 12 0 15 0;
#X connect 12 1 13 0;
#X connect 13 0 14 0;
#X connect 16 0 19 0;
#X connect 16 1 17 0;
#X connect 17 0 18 0;
#X connect 20 0 12 0;
#X connect 21 0 16 0;
#X connect 22 0 26 0;
#X connect 22 1 11 0;
#X connect 23 0 41 0;
#X connect 24 0 10 2;
#X connect 24 1 35 0;
#X connect 25 0 20 0;
#X connect 26 0 42 0;
#X connect 27 0 32 0;
#X connect 28 0 29 0;
#X connect 29 0 30 0;
#X connect 30 0 33 3;
#X connect 31 0 28 0;
#X connect 32 0 10 1;
#X connect 32 1 34 0;
#X connect 33 0 40 0;
#X connect 34 0 33 0;
#X connect 35 0 36 0;
#X connect 36 0 39 0;
#X connect 37 0 38 0;
#X connect 38 0 33 2;
#X connect 39 0 33 1;
#X connect 39 1 37 0;
#X connect 40 0 21 0;
#X connect 41 0 0 0;
#X connect 41 1 6 0;
#X connect 41 2 20 1;
#X connect 41 3 21 1;
#X connect 41 4 26 1;
#X restore 140 151 pd set;
#N canvas 0 22 523 321 info 0;
#X text 152 20 use in batch mode:;
#X text 34 88 $ mkdir txt77 \; $ pd -batch -send " \; textdir 77 \;
window-size 2048 \; compute bang \; " -open _analyze.pd;
#X msg 212 117 \; textdir 77 \; window-size 2048 \; compute bang \;
;
#X text 210 93 "-send" this message:;
#X text 22 211 "maxtracks X" deffaults to 17 (Ntracks+1);
#X text 30 228 "normalize 0" will prevent normalization before analysis
;
#X restore 136 217 pd info;
#N canvas 0 22 450 300 compute 0;
#X obj 25 56 del;
#X obj 97 123 f;
#X obj 96 146 + 1;
#X obj 204 111 sel 17;
#X obj 77 92 spigot;
#X obj 189 142 t b b;
#X msg 162 91 0;
#X msg 121 63 1;
#X obj 12 254 print status;
#X text 190 9 <-- analyze continuously tracks 1-16, f 12;
#X obj 199 265 text define peak-sizes;
#X obj 156 168 t b b;
#X obj 128 123 t f f;
#X obj 78 3 r compute;
#X obj 77 31 t b b b;
#X obj 11 170 timer;
#X msg 11 194 --- \, done with all in: \$1, f 13;
#X obj 216 176 r textdir;
#X obj 202 208 f 2;
#X msg 200 237 write txt\$1/peak-sizes.txt;
#X obj 15 22 inlet;
#X obj 249 135 outlet;
#X obj 245 85 r maxtracks;
#X connect 0 0 4 0;
#X connect 1 0 2 0;
#X connect 2 0 12 0;
#X connect 3 0 5 0;
#X connect 3 1 21 0;
#X connect 4 0 1 0;
#X connect 5 0 11 0;
#X connect 5 1 6 0;
#X connect 6 0 4 1;
#X connect 7 0 4 1;
#X connect 7 0 8 0;
#X connect 11 0 15 1;
#X connect 11 1 18 0;
#X connect 12 0 1 1;
#X connect 12 1 3 0;
#X connect 13 0 14 0;
#X connect 14 0 4 0;
#X connect 14 1 7 0;
#X connect 14 2 15 0;
#X connect 15 0 16 0;
#X connect 16 0 8 0;
#X connect 17 0 18 1;
#X connect 18 0 19 0;
#X connect 19 0 10 0;
#X connect 20 0 0 0;
#X connect 22 0 3 1;
#X restore 48 43 pd compute;
#N canvas 0 23 455 321 magic-number 0;
#X msg 235 167 4.19432e+06;
#X obj 235 197 / 8192;
#X msg 26 181 4.19432e+06;
#X msg 27 21 48000;
#X obj 27 51 * 12;
#X obj 27 81 * 60;
#X floatatom 254 43 5 0 0 0 - - -, f 5;
#X msg 254 70 2 \$1;
#X obj 254 100 pow;
#X msg 279 7 22;
#X obj 27 111 print total-length;
#X obj 254 130 print 2pow;
#X text 20 141 approximately:;
#X obj 26 211 * 9;
#X text 65 209 <- 9 arrays;
#X obj 26 241 print total-memory;
#X obj 232 265 print;
#X obj 235 227 * 10;
#X connect 0 0 1 0;
#X connect 1 0 17 0;
#X connect 2 0 13 0;
#X connect 3 0 4 0;
#X connect 4 0 5 0;
#X connect 5 0 10 0;
#X connect 6 0 7 0;
#X connect 7 0 8 0;
#X connect 8 0 11 0;
#X connect 9 0 6 0;
#X connect 13 0 15 0;
#X connect 17 0 16 0;
#X restore 284 170 pd magic-number;
#N canvas 0 22 450 300 store 0;
#X obj 140 133 array define pos;
#X obj 131 243 array define col;
#X obj 101 52 t f f;
#X obj 95 164 t b f;
#X obj 81 269 outlet;
#X obj 183 13 r textdir;
#X obj 135 192 pack;
#X msg 133 214 write txt\$2/col-\$1.txt;
#X msg 140 105 write txt\$2/pos-\$1.txt;
#X obj 142 81 pack f 2;
#X obj 103 21 inlet;
#X connect 2 0 3 0;
#X connect 2 1 9 0;
#X connect 3 0 4 0;
#X connect 3 1 6 0;
#X connect 5 0 9 1;
#X connect 5 0 6 1;
#X connect 6 0 7 0;
#X connect 7 0 1 0;
#X connect 8 0 0 0;
#X connect 9 0 8 0;
#X connect 10 0 2 0;
#X restore 140 178 pd store;
#X obj 284 146 clone _astore 9;
#X connect 0 0 2 0;
#X connect 1 0 0 0;
#X connect 1 1 0 1;
#X connect 2 0 6 0;
#X connect 4 0 1 0;
#X connect 6 0 4 0;
