#N canvas 0 22 450 300 16;
#X obj 66 23 r \$1;
#X obj 66 52 t a b;
#X obj 66 110 text set \$2;
#X obj 133 40 f \$3;
#X obj 66 81 list prepend \$1-set;
#X connect 0 0 1 0;
#X connect 1 0 4 0;
#X connect 1 1 3 0;
#X connect 3 0 2 1;
#X connect 4 0 2 0;
