#N canvas 619 21 637 566 12;
#X obj 27 501 gemvertexbuffer;
#X obj 27 325 GEMglPointSize 1;
#X obj 27 69 gemhead \$1;
#X obj 27 122 ortho;
#X obj 27 96 alpha;
#X obj 27 189 scale 0.18 -1 1 1;
#X obj 27 29 inlet;
#X obj 146 299 r PointSize;
#N canvas 0 22 450 300 rot__pos_res 0;
#X obj 82 240 scaleXYZ 1.33 10 10;
#X obj 82 85 rotateXYZ 25 45 0;
#X obj 82 164 translateXYZ -6.6 -6 -8;
#X obj 125 189 r res;
#X obj 125 214 unpack f f f;
#X obj 134 134 unpack f f f;
#X obj 134 109 r pos;
#X obj 120 35 r rot;
#X obj 120 60 unpack f f f;
#X obj 82 9 inlet;
#X obj 82 265 outlet;
#X connect 0 0 10 0;
#X connect 1 0 2 0;
#X connect 2 0 0 0;
#X connect 3 0 4 0;
#X connect 4 0 0 1;
#X connect 4 1 0 2;
#X connect 4 2 0 3;
#X connect 5 0 2 1;
#X connect 5 1 2 2;
#X connect 5 2 2 3;
#X connect 6 0 5 0;
#X connect 7 0 8 0;
#X connect 8 0 1 1;
#X connect 8 1 1 2;
#X connect 8 2 1 3;
#X connect 9 0 1 0;
#X restore 27 266 pd rot__pos_res;
#X obj 85 160 r scale;
#X obj 287 18 inlet;
#X obj 337 294 soundfiler;
#X obj 288 433 r type;
#X msg 266 380 resize \$1;
#X msg 288 458 draw \$1;
#X obj 146 324 clip 1 10;
#X obj 449 66 array define pos-\$1;
#X obj 449 87 array define col-\$1;
#X msg 234 328 position pos-\$1 \, color col-\$1;
#X obj 266 355 array size col-\$1;
#X obj 337 223 pdcontrol;
#X obj 334 124 symbol;
#X obj 287 42 t b b a, f 14;
#X obj 337 247 pack s s;
#X msg 337 270 read -resize -ascii \$1 \$2;
#X obj 251 232 f \$1;
#X obj 337 147 t a a;
#X obj 338 170 pack s s;
#X obj 336 77 f \$1;
#X msg 334 100 pos-\$1 \, col-\$1;
#X msg 337 201 dir 0 \$2/\$1.txt;
#X obj 234 271 t a b b;
#X obj 422 443 outlet;
#X connect 1 0 0 0;
#X connect 2 0 4 0;
#X connect 3 0 5 0;
#X connect 4 0 3 0;
#X connect 5 0 8 0;
#X connect 6 0 2 0;
#X connect 7 0 15 0;
#X connect 8 0 1 0;
#X connect 9 0 5 1;
#X connect 10 0 22 0;
#X connect 12 0 14 0;
#X connect 13 0 0 0;
#X connect 14 0 0 0;
#X connect 15 0 1 1;
#X connect 18 0 0 0;
#X connect 19 0 13 0;
#X connect 20 0 23 0;
#X connect 21 0 26 0;
#X connect 22 0 25 0;
#X connect 22 1 28 0;
#X connect 22 2 27 1;
#X connect 23 0 24 0;
#X connect 24 0 11 0;
#X connect 25 0 31 0;
#X connect 26 0 27 0;
#X connect 26 1 23 1;
#X connect 27 0 30 0;
#X connect 28 0 29 0;
#X connect 29 0 21 0;
#X connect 30 0 20 0;
#X connect 31 0 18 0;
#X connect 31 1 19 0;
#X connect 31 2 32 0;
