#N canvas 625 27 478 398 12;
#X obj 137 350 gemvertexbuffer;
#X obj 137 294 GEMglPointSize 1;
#X obj 27 69 gemhead \$1;
#X obj 180 71 f \$1;
#X obj 27 122 ortho;
#X obj 27 96 alpha;
#X obj 27 149 scale 0.18 -1 1 1;
#X obj 27 29 inlet;
#X obj 180 16 loadbang;
#X obj 259 249 r PointSize;
#X obj 137 206 translateXYZ 0 0 0;
#N canvas 0 23 450 300 positioned 0;
#X obj 11 56 sel 1 3 5 7;
#X obj 317 43 sel 9 11 13 15;
#X obj 154 36 sel 2 4 6 8;
#X obj 285 175 sel 10 12 14 16;
#X msg 102 95 -14;
#X msg 235 81 -14;
#X msg 144 80 16;
#X msg 366 76 -14;
#X msg 275 75 16;
#X msg 378 212 -14;
#X msg 287 211 16;
#X msg 71 95 -4;
#X msg 40 95 6;
#X msg 11 94 16;
#X msg 173 81 6;
#X msg 304 76 6;
#X msg 316 212 6;
#X msg 204 81 -4;
#X msg 347 212 -4;
#X msg 335 76 -4;
#X msg 41 126 18 \$1;
#X msg 174 112 8 \$1;
#X msg 305 107 -2 \$1;
#X msg 317 243 -12 \$1;
#X obj 24 14 inlet;
#X obj 23 230 outlet;
#X connect 0 0 13 0;
#X connect 0 1 12 0;
#X connect 0 2 11 0;
#X connect 0 3 4 0;
#X connect 0 4 2 0;
#X connect 1 0 8 0;
#X connect 1 1 15 0;
#X connect 1 2 19 0;
#X connect 1 3 7 0;
#X connect 1 4 3 0;
#X connect 2 0 6 0;
#X connect 2 1 14 0;
#X connect 2 2 17 0;
#X connect 2 3 5 0;
#X connect 2 4 1 0;
#X connect 3 0 10 0;
#X connect 3 1 16 0;
#X connect 3 2 18 0;
#X connect 3 3 9 0;
#X connect 4 0 20 0;
#X connect 5 0 21 0;
#X connect 6 0 21 0;
#X connect 7 0 22 0;
#X connect 8 0 22 0;
#X connect 9 0 23 0;
#X connect 10 0 23 0;
#X connect 11 0 20 0;
#X connect 12 0 20 0;
#X connect 13 0 20 0;
#X connect 14 0 21 0;
#X connect 15 0 22 0;
#X connect 16 0 23 0;
#X connect 17 0 21 0;
#X connect 18 0 23 0;
#X connect 19 0 22 0;
#X connect 20 0 25 0;
#X connect 21 0 25 0;
#X connect 22 0 25 0;
#X connect 23 0 25 0;
#X connect 24 0 0 0;
#X restore 180 156 pd positioned;
#X obj 180 130 spigot \$3;
#X obj 180 181 unpack;
#X obj 259 274 + 1;
#X obj 187 40 r reload;
#N canvas 0 22 450 300 rot__pos_res 0;
#X obj 82 240 scaleXYZ 1.33 10 10;
#X obj 82 85 rotateXYZ 25 45 0;
#X obj 82 164 translateXYZ -6.6 -6 -8;
#X obj 125 189 r res;
#X obj 125 214 unpack f f f;
#X obj 134 134 unpack f f f;
#X obj 134 109 r pos;
#X obj 120 35 r rot;
#X obj 120 60 unpack f f f;
#X obj 82 9 inlet;
#X obj 82 265 outlet;
#X connect 0 0 10 0;
#X connect 1 0 2 0;
#X connect 2 0 0 0;
#X connect 3 0 4 0;
#X connect 4 0 0 1;
#X connect 4 1 0 2;
#X connect 4 2 0 3;
#X connect 5 0 2 1;
#X connect 5 1 2 2;
#X connect 5 2 2 3;
#X connect 6 0 5 0;
#X connect 7 0 8 0;
#X connect 8 0 1 1;
#X connect 8 1 1 2;
#X connect 8 2 1 3;
#X connect 9 0 1 0;
#X restore 137 235 pd rot__pos_res;
#N canvas 0 22 450 300 arrays 0;
#X obj 51 216 fd_read-resize;
#X obj 74 116 fd_read-resize;
#X obj 74 66 list append \$2;
#X msg 74 90 read \$2/pos-\$1.txt;
#X obj 51 166 list append \$2;
#X msg 51 191 read \$2/col-\$1.txt;
#X obj 74 141 array define pos-\$1-\$2;
#X obj 51 242 array define col-\$1-\$2;
#X obj 28 41 t b f f;
#X obj 28 15 inlet;
#X obj 28 265 outlet;
#X connect 0 0 7 0;
#X connect 1 0 6 0;
#X connect 2 0 3 0;
#X connect 3 0 1 0;
#X connect 4 0 5 0;
#X connect 5 0 0 0;
#X connect 8 0 10 0;
#X connect 8 1 4 0;
#X connect 8 2 2 0;
#X connect 9 0 8 0;
#X restore 350 118 pd arrays;
#N canvas 0 22 450 300 vbo_stuff 0;
#X obj 190 175 r type;
#X msg 76 161 resize \$1;
#X obj 44 83 list append \$1 \$2;
#X obj 76 136 array size col-\$1-\$2;
#X obj 44 52 t b b;
#X msg 44 109 position pos-\$1-\$2 \, color col-\$1-\$2;
#X msg 190 200 draw \$1;
#X obj 44 220 outlet;
#X obj 44 23 inlet;
#X connect 0 0 6 0;
#X connect 1 0 7 0;
#X connect 2 0 5 0;
#X connect 3 0 1 0;
#X connect 4 0 2 0;
#X connect 4 1 3 0;
#X connect 5 0 7 0;
#X connect 6 0 7 0;
#X connect 8 0 4 0;
#X restore 350 330 pd vbo_stuff;
#X obj 180 98 t f f;
#X connect 1 0 0 0;
#X connect 2 0 5 0;
#X connect 3 0 19 0;
#X connect 4 0 6 0;
#X connect 5 0 4 0;
#X connect 6 0 10 0;
#X connect 7 0 2 0;
#X connect 8 0 3 0;
#X connect 9 0 14 0;
#X connect 10 0 16 0;
#X connect 11 0 13 0;
#X connect 12 0 11 0;
#X connect 13 0 10 1;
#X connect 13 1 10 2;
#X connect 14 0 1 1;
#X connect 15 0 3 0;
#X connect 16 0 1 0;
#X connect 17 0 18 0;
#X connect 18 0 0 0;
#X connect 19 0 12 0;
#X connect 19 1 17 0;
