#N canvas 107 26 238 190 16;
#X declare -lib Gem;
#N canvas 0 23 450 300 guts 0;
#N canvas 0 23 531 436 vertical 0;
#X obj 129 165 list;
#X obj 211 305 f;
#X obj 256 306 + 16;
#X obj 94 353 list append 0;
#X obj 52 32 t a b;
#X obj 214 81 int;
#X obj 214 112 t f b;
#X obj 123 230 t a b b;
#X obj 316 279 crand 10 30;
#X obj 316 308 int;
#X obj 53 64 fd_listout;
#X obj 53 93 list tosymbol;
#X obj 255 216 int;
#X obj 214 52 crand 10 700;
#X obj 255 187 crand 10 400;
#X obj 54 4 r vertical;
#X obj 94 382 s set;
#X connect 0 0 7 0;
#X connect 1 0 2 0;
#X connect 1 0 3 1;
#X connect 2 0 1 1;
#X connect 3 0 16 0;
#X connect 4 0 10 0;
#X connect 4 1 13 0;
#X connect 5 0 6 0;
#X connect 6 0 0 1;
#X connect 6 1 14 0;
#X connect 7 0 3 0;
#X connect 7 1 1 0;
#X connect 7 2 8 0;
#X connect 8 0 9 0;
#X connect 9 0 2 1;
#X connect 10 0 11 0;
#X connect 11 0 0 0;
#X connect 12 0 1 1;
#X connect 13 0 5 0;
#X connect 14 0 12 0;
#X connect 15 0 4 0;
#X restore 37 129 pd vertical;
#N canvas 0 23 750 448 horizontal 0;
#X obj 73 190 f;
#X obj 40 300 list;
#X obj 115 190 + 30;
#X obj 232 30 list fromsymbol;
#X obj 232 61 list length;
#X obj 40 73 t a b a;
#X obj 73 221 + 10;
#X obj 276 221 sel;
#X obj 276 252 t b b;
#X msg 437 81 0;
#X obj 167 300 f;
#X obj 212 300 + 16;
#X msg 578 350 0;
#X obj 232 92 * 12;
#X obj 276 190 <= 400;
#X obj 333 290 random 300;
#X obj 40 362 list append 0;
#X obj 73 252 t f f b;
#X obj 437 50 t b b;
#N canvas 0 23 450 300 riterator 0;
#X obj 148 216 symbol;
#X obj 82 67 t b a, f 6;
#X obj 84 177 until;
#X obj 84 28 inlet;
#X obj 148 246 outlet;
#X obj 79 108 random 3;
#X obj 79 138 + 1;
#X obj 250 124 list tosymbol;
#X connect 0 0 4 0;
#X connect 1 0 5 0;
#X connect 1 1 7 0;
#X connect 2 0 0 0;
#X connect 3 0 1 0;
#X connect 5 0 6 0;
#X connect 6 0 2 0;
#X connect 7 0 0 1;
#X restore 40 42 pd riterator;
#X obj 346 147 crand 300 600;
#X obj 346 178 int;
#X obj 40 11 r horizontal;
#X obj 437 21 r clear;
#X obj 40 394 s set;
#X connect 0 0 2 0;
#X connect 0 0 6 0;
#X connect 1 0 16 0;
#X connect 2 0 0 1;
#X connect 3 0 4 0;
#X connect 4 0 13 0;
#X connect 5 0 1 0;
#X connect 5 1 0 0;
#X connect 5 2 3 0;
#X connect 6 0 17 0;
#X connect 7 0 8 0;
#X connect 8 0 10 0;
#X connect 8 1 15 0;
#X connect 9 0 0 1;
#X connect 10 0 11 0;
#X connect 10 0 16 1;
#X connect 11 0 10 1;
#X connect 12 0 10 1;
#X connect 12 0 16 1;
#X connect 13 0 2 1;
#X connect 14 0 7 0;
#X connect 15 0 0 1;
#X connect 16 0 24 0;
#X connect 17 0 1 1;
#X connect 17 1 14 0;
#X connect 17 2 20 0;
#X connect 18 0 9 0;
#X connect 18 1 12 0;
#X connect 19 0 5 0;
#X connect 20 0 21 0;
#X connect 21 0 14 1;
#X connect 22 0 19 0;
#X connect 23 0 18 0;
#X restore 37 160 pd horizontal;
#N canvas 0 22 450 300 gemkey 0;
#X obj 82 11 gemkeyname;
#X obj 34 66 sel 1;
#X msg 34 218;
#X obj 214 39 list fromsymbol;
#X obj 272 183 t b b;
#X obj 186 103 tgl 15 0 empty empty empty 17 7 0 10 -262144 -1 -1 0
1;
#X obj 272 153 sel 1;
#X obj 214 92 sel 13 8;
#X msg 272 228 set;
#X obj 34 95 spigot 1;
#X obj 134 94 == 0;
#X msg 34 166 add2 \$1;
#X obj 34 139 f;
#X text 219 65 return \, backspace;
#X text 70 140 else;
#X text 39 189 ascii list:;
#X obj 34 261 s orientation;
#N canvas 651 64 450 300 show 0;
#X obj 32 33 inlet;
#X obj 32 94 route bang;
#X obj 150 58 gemhead;
#X msg 164 151 text \$1;
#X obj 164 118 list tosymbol;
#X msg 96 154 text;
#X obj 150 206 text2d;
#X obj 267 164 loadbang;
#X msg 267 193 35;
#X obj 150 87 color 1 1 1;
#X obj 30 257 gemwin;
#X obj 32 123 t b b;
#X obj 25 161 tgl 15 0 empty empty empty 17 7 0 10 -262144 -1 -1 0
1;
#X obj 25 190 sel;
#X msg 15 218 color 0.6 0.6 0.6;
#X msg 120 254 color 0.75 0.75 0.75;
#X connect 0 0 1 0;
#X connect 1 0 11 0;
#X connect 1 1 4 0;
#X connect 2 0 9 0;
#X connect 3 0 6 0;
#X connect 4 0 3 0;
#X connect 5 0 6 0;
#X connect 7 0 8 0;
#X connect 8 0 6 1;
#X connect 9 0 6 0;
#X connect 11 0 12 0;
#X connect 11 1 5 0;
#X connect 12 0 13 0;
#X connect 13 0 15 0;
#X connect 13 1 14 0;
#X connect 14 0 10 0;
#X connect 15 0 10 0;
#X restore 315 116 pd show;
#X connect 0 0 1 0;
#X connect 0 1 3 0;
#X connect 1 0 9 0;
#X connect 2 0 16 0;
#X connect 3 0 7 0;
#X connect 4 0 8 0;
#X connect 4 1 2 0;
#X connect 5 0 6 0;
#X connect 5 0 10 0;
#X connect 6 0 4 0;
#X connect 7 0 5 0;
#X connect 7 0 17 0;
#X connect 7 1 8 0;
#X connect 7 1 17 0;
#X connect 7 2 12 1;
#X connect 7 2 17 0;
#X connect 8 0 2 0;
#X connect 9 0 12 0;
#X connect 10 0 9 1;
#X connect 11 0 2 0;
#X connect 12 0 11 0;
#X restore 37 67 pd gemkey;
#N canvas 0 23 450 300 orientation 0;
#X obj 76 79 t a b;
#X obj 193 82 random 2;
#X obj 76 136 list prepend;
#X obj 76 177 route 0 1;
#X obj 76 236 s vertical;
#X obj 192 234 s horizontal;
#X obj 76 28 r orientation;
#X connect 0 0 2 0;
#X connect 0 1 1 0;
#X connect 1 0 2 1;
#X connect 2 0 3 0;
#X connect 3 0 4 0;
#X connect 3 1 5 0;
#X connect 6 0 0 0;
#X restore 37 98 pd orientation;
#N canvas 0 22 450 300 gem 0;
#X obj 48 49 declare -lib Gem;
#X obj 46 248 gemwin;
#X obj 46 142 loadbang;
#X text 41 14 Gem context:;
#X text 42 112 Gem window:;
#X msg 46 176 destroy \, color 0.75 0.75 0.75 \, dimen 100 100 \, create
\, 1 \; clear bang, f 30;
#X connect 2 0 5 0;
#X connect 5 0 1 0;
#X restore 37 36 pd gem;
#X obj 37 252 fd_typist-sub;
#N canvas 0 23 843 619 messages 0;
#X msg 485 376 12;
#X msg 527 376 16;
#X msg 569 376 32;
#X msg 612 376 48;
#X obj 485 316 sel 0 1 2 3;
#X obj 452 22 r vis;
#X obj 484 265 r font;
#X obj 27 347 mainpath;
#X obj 30 488 del 1000;
#X obj 27 245 del 300;
#N canvas 0 23 450 300 counter 0;
#X obj 100 119 f;
#X obj 145 119 + 1;
#X msg 250 58 set \$1;
#X obj 186 19 loadbang;
#X obj 100 22 inlet;
#X obj 100 216 outlet;
#X msg 186 59 9;
#X connect 0 0 1 0;
#X connect 0 0 5 0;
#X connect 1 0 0 1;
#X connect 1 0 2 0;
#X connect 2 0 6 0;
#X connect 3 0 6 0;
#X connect 4 0 0 0;
#X connect 6 0 0 1;
#X restore 27 279 pd counter;
#X msg 30 522 \; pd-fd_typist-sub.pd clear \, vis 0 \, setbounds 20
280 800 780 \, vis 1;
#X obj 30 449 r clear;
#X obj 27 158 r print;
#X obj 25 20 r set;
#X msg 484 430 \; pd-fd_typist-sub.pd font \$1 0 0;
#X msg 452 63 \; pd-fd_typist-sub.pd vis \$1;
#X msg 27 190 bang \; pd-fd_typist-sub.pd vis 0 \, setbounds 10 10
1280 720 \, vis 1 \, editmode 0 \;, f 72;
#X msg 25 61 \; pd-fd_typist-sub.pd text \$2 \$3 \$1;
#X msg 27 381 \; pd-fd_typist-sub.pd print \$1;
#X msg 27 313 add ps/sub-\$1.ps;
#X connect 0 0 15 0;
#X connect 1 0 15 0;
#X connect 2 0 15 0;
#X connect 3 0 15 0;
#X connect 4 0 0 0;
#X connect 4 1 1 0;
#X connect 4 2 2 0;
#X connect 4 3 3 0;
#X connect 5 0 16 0;
#X connect 6 0 4 0;
#X connect 7 0 19 0;
#X connect 8 0 11 0;
#X connect 9 0 10 0;
#X connect 10 0 20 0;
#X connect 12 0 8 0;
#X connect 13 0 17 0;
#X connect 14 0 18 0;
#X connect 17 0 9 0;
#X connect 20 0 7 0;
#X restore 37 191 pd messages;
#N canvas 0 23 450 300 gui 0;
#X floatatom 60 31 5 0 0 0 - - -, f 5;
#X obj 60 202 s gui;
#X floatatom 88 93 5 0 0 0 - - -, f 5;
#X msg 87 120 label_pos 0 -10;
#X msg 60 58 size 32;
#X msg 110 156 label_font 0 16 0;
#X connect 0 0 4 0;
#X connect 2 0 3 0;
#X connect 3 0 1 0;
#X connect 4 0 1 0;
#X connect 5 0 1 0;
#X restore 37 222 pd gui;
#X restore 28 135 pd guts;
#X obj 166 88 tgl 32 0 vis gui vis 0 -10 0 16 -262144 -1 -1 0 1;
#X obj 29 88 hradio 32 1 0 4 font gui font_size 0 -10 0 16 -262144
-1 -1 1;
#X obj 29 32 bng 32 250 50 0 clear gui clear 0 -10 0 16 -262144 -1
-1;
#X obj 166 32 bng 32 250 50 0 print gui print 0 -10 0 16 -262144 -1
-1;
#N canvas 0 22 450 300 info 0;
#X text 30 41 Click on the GEM window to get keyboard input and start
typing. The text will appear with some randomness in vertical or horizontal
orientation on the "pd-sub" canvas., f 38;
#X text 36 174 When you are done \, click the "print" message below.
A "sub-#.ps" file will be created \, where # is an index. To start
over \, click "clear"., f 37;
#X restore 110 136 pd info;
