#N canvas 536 164 450 300 12;
#X declare -lib Gem;
#X obj 74 102 nbx 5 14 -1e+37 1e+37 0 0 x_rot x_rot-set x_rot 0 -8
0 10 -262144 -1 -1 10 256;
#X obj 134 102 nbx 5 14 -1e+37 1e+37 0 0 y_rot y_rot-set y_rot 0 -8
0 10 -262144 -1 -1 -5 256;
#X obj 195 102 nbx 5 14 -1e+37 1e+37 0 0 z_rot z_rot-set z_rot 0 -8
0 10 -262144 -1 -1 0 256;
#X obj 261 139 vsl 15 128 0.1 20000 1 0 a_res a_res-set amplitude_resolution
0 -9 0 10 -262144 -1 -1 7043 1;
#X obj 286 154 vsl 15 128 0.1 7200 1 0 t_res t_res-set time_resolution
0 -9 0 10 -262144 -1 -1 8677 1;
#X obj 261 102 hsl 128 15 0.1 20000 1 1 f_res f_res-set frequency_resolution
-2 -8 0 10 -262144 -1 -1 3828 1;
#X obj 74 132 nbx 5 14 -1e+37 1e+37 0 0 x_pos x_pos-set x_pos 0 -8
0 10 -262144 -1 -1 -25 256;
#X obj 134 132 nbx 5 14 -1e+37 1e+37 0 0 y_pos y_pos-set y_pos 0 -8
0 10 -262144 -1 -1 0 256;
#X obj 195 132 nbx 5 14 -1e+37 1e+37 0 0 z_pos z_pos-set z_pos 0 -8
0 10 -262144 -1 -1 -100 256;
#X obj 72 220 hradio 15 1 0 8 PointSize PointSize-set PointSize 0 -8
0 10 -262144 -1 -1 0;
#X obj 267 24 bng 15 250 50 0 reload reload-set reload 17 7 0 10 -262144
-1 -1;
#X obj 320 249 bng 15 250 50 0 save save-set save_preset 17 7 0 10
-262144 -1 -1;
#X obj 149 164 bng 15 250 50 0 capture capture-set capture_image 17
7 0 10 -262144 -1 -1;
#X obj 319 190 nbx 5 14 0 1e+37 0 0 load load-set load_preset 0 -8
0 10 -262144 -1 -1 1 256;
#X obj 319 224 nbx 5 14 -1e+37 1e+37 0 0 empty preset-count preset-count
0 -8 0 10 -262144 -1 -1 0 256;
#X obj 72 257 bng 15 250 50 0 playback playback-set playback(preset_23)
17 7 0 10 -262144 -1 -1;
#X obj 202 257 bng 15 250 50 0 stop stop-set stop 17 7 0 10 -262144
-1 -1;
#X obj 74 24 bng 15 250 50 0 display_1 display_1-set display_1 17 7
0 10 -262144 -1 -1;
#X obj 148 24 bng 15 250 50 0 display_2 display_2-set display_2 17
7 0 10 -262144 -1 -1;
#X obj 225 24 bng 15 250 50 0 off off-set off 17 7 0 10 -262144 -1
-1;
#X obj 204 220 nbx 3 14 1 60 0 0 frame frame-set fps 0 -8 0 10 -262144
-1 -1 10 256;
#X obj 72 179 hradio 15 1 0 4 draw_type draw_type-set point 0 -8 0
10 -262144 -1 -1 0;
#X obj 73 60 hradio 15 1 0 16 track track-set track 0 -8 0 10 -262144
-1 -1 0;
#X obj 323 60 tgl 15 0 all all-set all 17 7 0 10 -262144 -1 -1 0 1
;
#X obj 149 183 tgl 15 0 auto_capture auto_capture-set auto_capture
17 7 0 10 -262144 -1 -1 0 1;
#N canvas 0 22 450 300 guts 0;
#N canvas 0 23 450 300 capture 0;
#X obj 41 30 gemhead -1;
#X obj 41 226 pix_write 0 0 1280 720;
#X obj 41 81 alpha;
#X obj 41 55 ortho;
#X obj 41 106 t a b;
#X obj 41 145 pix_snap 0 0 1280 720, f 12;
#X obj 160 59 r display;
#X obj 160 84 list split 2;
#X obj 160 109 t a a;
#N canvas 0 22 450 300 capture 0;
#X obj 83 215 mainpath;
#X obj 83 105 f;
#X obj 111 104 + 1;
#X obj 83 18 r capture;
#X msg 143 105 set \$1;
#X obj 101 48 loadbang;
#X msg 83 240 file \$1 type 200 \, bang;
#X obj 108 137 r load;
#X obj 83 166 pack;
#X obj 165 146 r preset-count;
#X msg 101 76 16;
#X obj 83 265 outlet;
#X msg 83 190 add tif/preset-\$2-pic-\$1;
#X connect 0 0 6 0;
#X connect 1 0 2 0;
#X connect 1 0 8 0;
#X connect 2 0 1 1;
#X connect 2 0 4 0;
#X connect 3 0 1 0;
#X connect 4 0 10 0;
#X connect 5 0 10 0;
#X connect 6 0 11 0;
#X connect 7 0 8 1;
#X connect 8 0 12 0;
#X connect 9 0 8 1;
#X connect 10 0 1 1;
#X connect 12 0 0 0;
#X restore 61 197 pd capture;
#N canvas 614 33 450 300 auto_capture 0;
#X obj 97 138 s capture;
#X obj 75 90 tgl 15 0 empty empty empty 17 7 0 10 -262144 -1 -1 0 1
;
#X obj 75 111 sel 1 0;
#X obj 75 65 metro 1000;
#X obj 75 196 f;
#X obj 103 196 + 1;
#X obj 145 167 sel 17;
#X msg 96 164 0;
#X obj 75 35 r auto_capture;
#X msg 145 229 \; auto_capture-set 0;
#X obj 145 192 t b b;
#X obj 83 248 s track;
#X connect 1 0 2 0;
#X connect 2 0 4 0;
#X connect 2 1 0 0;
#X connect 3 0 1 0;
#X connect 4 0 5 0;
#X connect 5 0 4 1;
#X connect 5 0 6 0;
#X connect 5 0 11 0;
#X connect 6 0 10 0;
#X connect 7 0 4 1;
#X connect 8 0 3 0;
#X connect 10 0 9 0;
#X connect 10 1 7 0;
#X restore 275 173 pd auto_capture;
#X connect 0 0 3 0;
#X connect 2 0 4 0;
#X connect 3 0 2 0;
#X connect 4 0 5 0;
#X connect 4 1 5 0;
#X connect 5 0 1 0;
#X connect 6 0 7 0;
#X connect 7 0 8 0;
#X connect 8 0 5 2;
#X connect 8 1 1 2;
#X connect 9 0 1 0;
#X restore 14 47 pd capture;
#N canvas 645 355 452 299 presets 0;
#X obj 260 142 text define presets;
#N canvas 0 23 450 392 load 0;
#X obj 55 18 r load;
#X msg 55 43 read txt/preset-\$1.txt;
#X obj 55 68 t b a;
#X obj 87 93 outlet;
#X msg 78 148 line 0 \, auto;
#X obj 78 173 text sequence presets;
#X obj 78 198 list prepend add;
#X obj 78 223 list trim;
#X msg 55 264 \; x_rot-set 10 \; y_rot-set -5 \; z_rot-set 0 \; x_pos-set
-25 \; y_pos-set 0 \; z_pos-set -100 \; f_res-set 3.96116 \; a_res-set
79.0743 \; t_res-set 196.009 \; draw_type-set 0 \; PointSize-set 0
\; frame-set 10 \;;
#X obj 55 117 t b b b;
#X msg 307 188 set \, addsemi;
#X connect 0 0 1 0;
#X connect 1 0 2 0;
#X connect 2 0 9 0;
#X connect 2 1 3 0;
#X connect 4 0 5 0;
#X connect 5 0 6 0;
#X connect 6 0 7 0;
#X connect 7 0 8 0;
#X connect 9 0 8 0;
#X connect 9 1 4 0;
#X connect 9 2 10 0;
#X connect 10 0 8 0;
#X restore 325 92 pd load;
#N canvas 0 23 450 300 save 0;
#X obj 67 99 f;
#X obj 95 98 + 1;
#X msg 139 121 set \$1;
#X obj 190 70 loadbang;
#X obj 70 191 outlet;
#X obj 67 124 t f f;
#X obj 203 195 s preset-count;
#X obj 67 52 r save;
#X msg 83 158 write txt/preset-\$1.txt;
#X msg 141 92 3;
#X connect 0 0 1 0;
#X connect 0 0 5 0;
#X connect 1 0 0 1;
#X connect 1 0 2 0;
#X connect 2 0 9 0;
#X connect 3 0 9 0;
#X connect 5 0 8 0;
#X connect 5 1 6 0;
#X connect 7 0 0 0;
#X connect 8 0 4 0;
#X connect 9 0 0 1;
#X restore 260 92 pd save;
#X obj 16 14 _pstore x_rot presets 0;
#X obj 16 34 _pstore y_rot presets 1;
#X obj 16 54 _pstore z_rot presets 2;
#X obj 16 74 _pstore x_pos presets 3;
#X obj 16 94 _pstore y_pos presets 4;
#X obj 16 114 _pstore z_pos presets 5;
#X obj 16 134 _pstore f_res presets 6;
#X obj 16 154 _pstore a_res presets 7;
#X obj 16 174 _pstore t_res presets 8;
#X obj 16 194 _pstore draw_type presets 9;
#X obj 16 214 _pstore PointSize presets 10;
#X obj 16 234 _pstore frame presets 11;
#X connect 1 0 0 0;
#X connect 2 0 0 0;
#X restore 14 71 pd presets;
#N canvas 0 24 450 300 display 0;
#X obj 13 16 declare -lib Gem;
#X obj 18 63 r gemwin;
#X obj 18 231 gemwin;
#X obj 35 99 r display;
#X obj 175 152 loadbang;
#X msg 175 211 view 0 0 20 \, perspec -1 1 -1 1 4 50;
#X msg 182 183 view 0 0 4 \, perspec -1 1 -1 1 1 20;
#X text 139 16 <-- Gem context;
#X text 70 232 <-- gem window;
#X obj 147 54 r frame;
#X msg 147 79 frame \$1;
#X msg 35 127 gemwin 0 \, destroy \, dimen \$1 \$2 \, FSAA \$3 \, create
\, frame \$4 \, 1, f 16;
#X connect 1 0 2 0;
#X connect 3 0 11 0;
#X connect 4 0 5 0;
#X connect 5 0 2 0;
#X connect 9 0 10 0;
#X connect 10 0 2 0;
#X connect 11 0 2 0;
#X restore 14 23 pd display;
#N canvas 0 22 450 300 vbo 0;
#X msg 92 148 all \$1;
#X msg 180 156 all 0 \, \$1 1;
#X obj 92 212 clone -s 1 _vbo5 16 txt11;
#X obj 180 97 r track;
#X obj 92 118 r all;
#X obj 180 122 + 1;
#X connect 0 0 2 0;
#X connect 1 0 2 0;
#X connect 3 0 5 0;
#X connect 4 0 0 0;
#X connect 5 0 1 0;
#X restore 14 167 pd vbo;
#N canvas 0 22 453 490 control 0;
#X obj 23 85 pack f f f;
#X obj 23 109 s rot;
#X obj 23 21 r x_rot;
#X obj 135 45 t b f;
#X obj 79 45 t b f;
#X obj 79 21 r y_rot;
#X obj 135 21 r z_rot;
#X obj 137 170 t b f;
#X obj 81 170 t b f;
#X obj 25 146 r f_res;
#X obj 81 146 r a_res;
#X obj 137 146 r t_res;
#X obj 25 210 pack f f f;
#X obj 25 234 s res;
#X obj 223 85 pack f f f;
#X obj 335 45 t b f;
#X obj 279 45 t b f;
#X obj 223 109 s pos;
#X obj 223 21 r x_pos;
#X obj 279 21 r y_pos;
#X obj 335 21 r z_pos;
#X obj 215 261 line;
#X msg 215 171 30 \, -600 719000;
#X obj 215 146 r playback;
#X msg 225 228 stop;
#X obj 225 197 r stop;
#X msg 28 434 \; gemwin 0 \, destroy;
#X msg 27 300 \; display 1280 720 4 1;
#X msg 28 366 \; display 640 480 0 20;
#X obj 28 275 r display_1;
#X obj 27 343 r display_2;
#X obj 29 409 r off;
#X obj 364 424 symbol;
#X obj 364 447 s type;
#X msg 364 323 triangle;
#X msg 364 347 fill;
#X msg 364 371 point;
#X msg 364 395 line;
#X obj 298 288 sel 0 1 2 3;
#X obj 298 263 r draw_type;
#X obj 229 433 s draw_type-set;
#X msg 229 409 label \$1;
#X obj 279 359 r type;
#X obj 214 360 loadbang;
#X msg 214 385 symbol draw_type;
#X obj 215 286 s z_pos-set;
#X connect 0 0 1 0;
#X connect 2 0 0 0;
#X connect 3 0 0 0;
#X connect 3 1 0 2;
#X connect 4 0 0 0;
#X connect 4 1 0 1;
#X connect 5 0 4 0;
#X connect 6 0 3 0;
#X connect 7 0 12 0;
#X connect 7 1 12 2;
#X connect 8 0 12 0;
#X connect 8 1 12 1;
#X connect 9 0 12 0;
#X connect 10 0 8 0;
#X connect 11 0 7 0;
#X connect 12 0 13 0;
#X connect 14 0 17 0;
#X connect 15 0 14 0;
#X connect 15 1 14 2;
#X connect 16 0 14 0;
#X connect 16 1 14 1;
#X connect 18 0 14 0;
#X connect 19 0 16 0;
#X connect 20 0 15 0;
#X connect 21 0 45 0;
#X connect 22 0 21 0;
#X connect 23 0 22 0;
#X connect 24 0 21 0;
#X connect 25 0 24 0;
#X connect 29 0 27 0;
#X connect 30 0 28 0;
#X connect 31 0 26 0;
#X connect 32 0 33 0;
#X connect 34 0 32 0;
#X connect 35 0 32 0;
#X connect 36 0 32 0;
#X connect 37 0 32 0;
#X connect 38 0 36 0;
#X connect 38 1 37 0;
#X connect 38 2 35 0;
#X connect 38 3 34 0;
#X connect 39 0 38 0;
#X connect 41 0 40 0;
#X connect 42 0 41 0;
#X connect 43 0 44 0;
#X connect 44 0 41 0;
#X restore 14 95 pd control;
#N canvas 0 23 450 300 perspec 0;
#X obj 102 119 t b f;
#X obj 161 119 t b f;
#X floatatom 161 99 5 0 0 0 - - -, f 5;
#X floatatom 102 99 5 0 0 0 - - -, f 5;
#X floatatom 57 99 5 0 0 0 - - -, f 5;
#X obj 216 119 t b f;
#X obj 275 119 t b f;
#X floatatom 275 99 5 0 0 0 - - -, f 5;
#X floatatom 216 99 5 0 0 0 - - -, f 5;
#X obj 326 119 t b f;
#X floatatom 326 99 5 0 0 0 - - -, f 5;
#X obj 85 213 gemwin;
#X msg 85 188 perspec \$1 \$2 \$3 \$4 \$5 \$6;
#X obj 85 164 pack f f f f f f;
#X msg 105 67 perspec -1 1 -1 1 1 20;
#X connect 0 0 13 0;
#X connect 0 1 13 1;
#X connect 1 0 13 0;
#X connect 1 1 13 2;
#X connect 2 0 1 0;
#X connect 3 0 0 0;
#X connect 4 0 13 0;
#X connect 5 0 13 0;
#X connect 5 1 13 3;
#X connect 6 0 13 0;
#X connect 6 1 13 4;
#X connect 7 0 6 0;
#X connect 8 0 5 0;
#X connect 9 0 13 0;
#X connect 9 1 13 5;
#X connect 10 0 9 0;
#X connect 12 0 11 0;
#X connect 13 0 12 0;
#X restore 14 119 pd perspec;
#N canvas 677 354 450 300 view 0;
#X obj 51 101 t b f;
#X obj 100 101 t b f;
#X floatatom 100 81 5 0 0 0 - - -, f 5;
#X floatatom 51 81 5 0 0 0 - - -, f 5;
#X floatatom 9 101 5 0 0 0 - - -, f 5;
#X obj 145 101 t b f;
#X obj 194 101 t b f;
#X floatatom 194 81 5 0 0 0 - - -, f 5;
#X floatatom 145 81 5 0 0 0 - - -, f 5;
#X obj 245 101 t b f;
#X obj 292 101 t b f;
#X floatatom 292 81 5 0 0 0 - - -, f 5;
#X floatatom 245 81 5 0 0 0 - - -, f 5;
#X obj 336 101 t b f;
#X floatatom 336 81 5 0 0 0 - - -, f 5;
#X msg 94 188 view \$1 \$2 \$3 \$4 \$5 \$6 \$7 \$8 \$9;
#X obj 94 164 pack f f f f f f f f f;
#X obj 383 101 t b f;
#X floatatom 383 81 5 0 0 0 - - -, f 5;
#X msg 97 41 view 0 0 4 0 0 0 0 1 0;
#X obj 95 213 s gemwin;
#X connect 0 0 16 0;
#X connect 0 1 16 1;
#X connect 1 0 16 0;
#X connect 1 1 16 2;
#X connect 2 0 1 0;
#X connect 3 0 0 0;
#X connect 4 0 16 0;
#X connect 5 0 16 0;
#X connect 5 1 16 3;
#X connect 6 0 16 0;
#X connect 6 1 16 4;
#X connect 7 0 6 0;
#X connect 8 0 5 0;
#X connect 9 0 16 0;
#X connect 9 1 16 5;
#X connect 10 0 16 0;
#X connect 10 1 16 6;
#X connect 11 0 10 0;
#X connect 12 0 9 0;
#X connect 13 0 16 0;
#X connect 13 1 16 7;
#X connect 14 0 13 0;
#X connect 15 0 20 0;
#X connect 16 0 15 0;
#X connect 17 0 16 0;
#X connect 17 1 16 8;
#X connect 18 0 17 0;
#X restore 14 143 pd view;
#X restore 335 24 pd guts;
